<svg width="38" height="38" viewBox="0 0 38 38" fill="none" xmlns="http://www.w3.org/2000/svg">
<g clip-path="url(#clip0_1102_42)">
<path d="M15.0417 10.2917V15.0417H10.2917V10.2917H15.0417ZM17.4167 7.91666H7.91666V17.4167H17.4167V7.91666ZM15.0417 22.9583V27.7083H10.2917V22.9583H15.0417ZM17.4167 20.5833H7.91666V30.0833H17.4167V20.5833ZM27.7083 10.2917V15.0417H22.9583V10.2917H27.7083ZM30.0833 7.91666H20.5833V17.4167H30.0833V7.91666ZM20.5833 20.5833H22.9583V22.9583H20.5833V20.5833ZM22.9583 22.9583H25.3333V25.3333H22.9583V22.9583ZM25.3333 20.5833H27.7083V22.9583H25.3333V20.5833ZM20.5833 25.3333H22.9583V27.7083H20.5833V25.3333ZM22.9583 27.7083H25.3333V30.0833H22.9583V27.7083ZM25.3333 25.3333H27.7083V27.7083H25.3333V25.3333ZM27.7083 22.9583H30.0833V25.3333H27.7083V22.9583ZM27.7083 27.7083H30.0833V30.0833H27.7083V27.7083ZM34.8333 11.0833H31.6667V6.33332H26.9167V3.16666H34.8333V11.0833ZM34.8333 34.8333V26.9167H31.6667V31.6667H26.9167V34.8333H34.8333ZM3.16666 34.8333H11.0833V31.6667H6.33332V26.9167H3.16666V34.8333ZM3.16666 3.16666V11.0833H6.33332V6.33332H11.0833V3.16666H3.16666Z" fill="#F0EEED"/>
</g>
<defs>
<clipPath id="clip0_1102_42">
<rect width="38" height="38" fill="white"/>
</clipPath>
</defs>
</svg>
